<svg xmlns="http://www.w3.org/2000/svg" fill="none" viewBox="0 0 1640 224" height="224" width="1640">
<path fill="#715E50" d="M240.507 114.795C262.808 114.795 282.215 95.0056 282.215 69.6427C282.215 46.1378 262.808 26.0462 240.507 26.0462H184.287V114.795H240.507ZM914.975 114.795C937.276 114.795 956.683 95.0056 956.683 69.6427C956.683 46.1378 937.276 26.0462 914.975 26.0462H858.755V114.795H914.975ZM1384.69 201.383C1430.78 201.383 1468.7 161.2 1468.7 112.029C1468.7 62.8591 1430.74 22.0279 1384.69 22.0279C1338.65 22.0279 1300.98 62.8591 1300.98 112.029C1300.98 161.2 1338.65 201.383 1384.69 201.383ZM730.441 24.1883H680.009C676.817 24.1883 674.519 21.423 674.519 18.312V9.32485C674.519 6.21389 676.817 3.4486 680.009 3.4486H802.876C806.068 3.4486 808.366 6.21389 808.366 9.32485V18.312C808.366 21.3798 806.068 24.1883 802.876 24.1883H752.444V214.086C752.444 217.197 749.848 219.962 746.954 219.962H735.931C733.037 219.962 730.441 217.197 730.441 214.086V24.1883ZM56.0158 24.1883H5.58387C2.39197 24.1883 0.093811 21.423 0.093811 18.312V9.32485C0.093811 6.2571 2.39197 3.49181 5.58387 3.49181H128.45C131.642 3.49181 133.94 6.2571 133.94 9.36805V18.3552C133.94 21.423 131.642 24.2315 128.45 24.2315H78.0185V214.129C78.0185 217.24 75.4225 220.005 72.5285 220.005H61.5058C58.6118 220.005 56.0158 217.24 56.0158 214.129V24.1883ZM161.391 9.36805C161.391 6.2571 163.689 3.49181 166.881 3.49181H241.912C276.682 3.49181 305.068 32.5706 305.068 69.3835C305.068 97.8141 287.407 121.665 262.169 132.467L301.877 211.018C303.919 215.037 301.877 220.005 296.94 220.005H282.172C279.576 220.005 278.129 218.45 277.533 217.24L239.018 135.275H183.691V214.129C183.691 217.24 181.095 220.005 178.201 220.005H166.923C163.731 220.005 161.433 217.24 161.433 214.129V9.36805H161.391ZM835.859 9.36805C835.859 6.2571 838.157 3.49181 841.349 3.49181H916.38C951.15 3.49181 979.537 32.5706 979.537 69.3835C979.537 97.8141 961.875 121.665 936.637 132.467L976.345 211.018C978.387 215.037 976.345 220.005 971.408 220.005H956.64C954.044 220.005 952.597 218.45 952.001 217.24L913.486 135.275H858.159V214.129C858.159 217.24 855.563 220.005 852.669 220.005H841.391C838.2 220.005 835.901 217.24 835.901 214.129V9.36805H835.859ZM344.095 9.36805C344.095 6.2571 346.435 3.49181 349.585 3.49181H463.727C466.919 3.49181 469.217 6.2571 469.217 9.36805V18.3552C469.217 21.423 466.919 24.2315 463.727 24.2315H366.353V99.6721H449.512C452.406 99.6721 455.002 102.437 455.002 105.548V114.536C455.002 117.949 452.406 120.412 449.512 120.412H366.353V199.266H463.727C466.919 199.266 469.217 202.031 469.217 205.142V214.129C469.217 217.24 466.919 220.005 463.727 220.005H349.585C346.393 220.005 344.095 217.24 344.095 214.129V9.36805ZM1020.09 9.36805C1020.09 6.2571 1022.69 3.49181 1025.58 3.49181H1037.16C1040.05 3.49181 1042.65 6.2571 1042.65 9.36805V214.086C1042.65 217.197 1040.05 219.962 1037.16 219.962H1025.58C1022.69 219.962 1020.09 217.197 1020.09 214.086V9.36805ZM1513.65 187.47C1515.09 185.612 1516.54 183.452 1517.99 181.594C1520.88 177.575 1524.07 175.113 1528.12 178.829C1530.16 180.686 1551.31 202.333 1577.1 202.333C1600.55 202.333 1615.91 186.563 1615.91 168.329C1615.91 146.984 1598.55 134.281 1565.23 119.461C1533.35 104.598 1514.24 90.6849 1514.24 55.4274C1514.24 34.3853 1529.9 0.380859 1575.95 0.380859C1604.34 0.380859 1625.49 16.1517 1625.49 16.1517C1627.24 17.059 1630.68 20.7749 1627.24 26.6511C1626.09 28.509 1624.94 30.6694 1623.75 32.5274C1621.15 36.8481 1618.26 38.1012 1613.62 35.2927C1611.57 34.0396 1593.32 21.0773 1575.65 21.0773C1544.93 21.0773 1535.65 42.1195 1535.65 55.0818C1535.65 75.8214 1550.42 87.8764 1574.76 98.6783C1613.87 115.702 1639.07 131.473 1639.07 167.335C1639.07 199.482 1610.38 222.987 1576.46 222.987C1542.54 222.987 1519.09 201.642 1515.35 197.926C1513.05 195.766 1510.11 193.303 1513.6 187.427L1513.65 187.47ZM492.156 187.47C493.603 185.612 495.05 183.452 496.497 181.594C499.391 177.575 502.583 175.113 506.626 178.829C508.669 180.686 529.82 202.333 555.611 202.333C579.103 202.333 594.424 186.563 594.424 168.329C594.424 146.984 577.018 134.281 543.737 119.461C511.86 104.598 492.752 90.6849 492.752 55.4274C492.752 34.3853 508.413 0.380859 554.462 0.380859C582.848 0.380859 604 16.1517 604 16.1517C605.745 17.059 609.234 20.7749 605.745 26.6511C604.596 28.509 603.447 30.6694 602.255 32.5274C599.659 36.8481 596.765 38.1012 592.126 35.2927C590.083 34.0396 571.868 21.0773 554.164 21.0773C523.436 21.0773 514.159 42.1195 514.159 55.0818C514.159 75.8214 528.926 87.8764 553.27 98.6783C592.381 115.702 617.576 131.473 617.576 167.335C617.576 199.482 588.891 222.987 555.015 222.987C521.138 222.987 497.646 201.642 493.858 197.926C491.56 195.766 488.624 193.303 492.113 187.427L492.156 187.47ZM1182.8 0.380859C1212.08 0.380859 1233.23 11.226 1252.93 29.1572C1255.23 31.62 1255.53 35.3359 1253.23 37.8419C1250.63 40.6072 1247.44 43.7181 1245.1 46.4834C1242.51 49.5944 1240.76 49.2487 1237.57 46.181C1222.8 32.2681 1201.95 22.0711 1182.54 22.0711C1136.75 22.0711 1101.98 62.9023 1101.98 110.82C1101.98 158.737 1136.75 200.173 1182.54 200.173C1214.42 200.173 1234.68 187.168 1234.68 187.168V143.874H1201.35C1198.16 143.874 1195.86 141.411 1195.86 138.3V126.85C1195.86 123.436 1198.16 120.973 1201.35 120.973H1251.49C1254.38 120.973 1256.72 123.739 1256.72 126.85V197.667C1256.72 199.223 1255.57 201.685 1254.42 202.593C1254.42 202.593 1224.84 222.987 1182.84 222.987C1124.87 222.987 1078.23 173.816 1078.23 111.943C1078.23 50.0697 1124.83 0.380859 1182.8 0.380859ZM1384.69 0.380859C1442.66 0.380859 1489.01 50.1561 1489.01 112.029C1489.01 173.903 1442.66 223.073 1384.69 223.073C1326.73 223.073 1280.68 173.903 1280.68 112.029C1280.68 50.1561 1326.77 0.380859 1384.69 0.380859Z"></path>
</svg>
